# xmcd
#
# Track frame offsets:
#	150
#	12972
#	25332
#	38525
#	51965
#	78355
#	90545
#	107485
#	122470
#	137872
#	150757
#	169452
#	183302
#	202870
#	217875
#
# Disc length: 3219
#
# Revision: 1
# Processed by: cddbd v1.5.1PL0 Copyright (c) Steve Scherf et al.
# Submitted via: ExactAudioCopy v0.90b4
# Normalized: r0:DSETVAR1
#
DISCID=b10c910f
DTITLE=Various Artist - Royal Soul - CD2
DYEAR=2002
DGENRE=Soul
TTITLE0=Percy Sledge - When A Man Loves A Woman
TTITLE1=The Platters - Only You
TTITLE2=The Temptations - My Girl
TTITLE3=Dinah Washington - Mad About The Boy
TTITLE4=Harold Melvin and Billy Paul - Me And Mrs Jones
TTITLE5=Ann Sexton - Colour My World Blue
TTITLE6=Gladys Knight and The Pips - Best Thing That ever Happened To Me
TTITLE7=The Jones Girl - Will You Be There
TTITLE8=Mary Wells - My Guy
TTITLE9=Isaac Hayes - A Few More Kisses To Go
TTITLE10=The Whispers - I'm The One For You
TTITLE11=Aaron Neville - Tell It Like It Is
TTITLE12=Al Jarreau - Lean On Me
TTITLE13=William Devaughn - Be Thankful For What You've Got
TTITLE14=Gil Scott-Heron - The Bottle
EXTD=
EXTT0=
EXTT1=
EXTT2=
EXTT3=
EXTT4=
EXTT5=
EXTT6=
EXTT7=
EXTT8=
EXTT9=
EXTT10=
EXTT11=
EXTT12=
EXTT13=
EXTT14=
PLAYORDER=
